# Simple low-poly crystal/gem OBJ model
# Generated for Asset Hub sample data

o Crystal
v 0.000000 1.000000 0.000000
v 0.800000 0.300000 0.800000
v -0.800000 0.300000 0.800000
v -0.800000 0.300000 -0.800000
v 0.800000 0.300000 -0.800000
v 0.000000 -1.000000 0.000000
v 0.500000 -0.600000 0.500000
v -0.500000 -0.600000 0.500000
v -0.500000 -0.600000 -0.500000
v 0.500000 -0.600000 -0.500000
# top fan
f 1 2 3
f 1 3 4
f 1 4 5
f 1 5 2
# middle band
f 2 5 10
f 2 10 6
f 2 6 7
f 2 7 3
f 3 7 8
f 3 8 4
f 4 8 9
f 4 9 5
f 5 9 10
f 10 9 8
f 10 8 7
f 10 7 6
